<?xml version="1.0" standalone="no"?>
<!DOCTYPE svg PUBLIC "-//W3C//DTD SVG 20010904//EN"
 "http://www.w3.org/TR/2001/REC-SVG-20010904/DTD/svg10.dtd">
<svg version="1.0" xmlns="http://www.w3.org/2000/svg"
 width="1280.000000pt" height="640.000000pt" viewBox="0 0 1280.000000 640.000000"
 preserveAspectRatio="xMidYMid meet">
<g transform="translate(0.000000,640.000000) scale(0.100000,-0.100000)"
fill="#000000" stroke="none">
<path d="M48 5495 c-51 -38 -57 -58 -39 -119 6 -17 24 -78 42 -136 68 -228
265 -635 535 -1110 307 -539 459 -859 581 -1215 70 -206 93 -314 93 -433 0
-116 -3 -143 -70 -554 -49 -301 -61 -473 -39 -551 15 -57 68 -110 106 -109 39
1 95 29 159 80 73 57 586 558 669 652 88 101 278 277 373 347 117 87 192 104
362 79 140 -20 369 -79 422 -108 l43 -23 8 -114 c12 -190 50 -241 180 -241 90
0 156 23 354 126 134 69 170 84 208 84 86 0 535 -101 624 -141 51 -22 57 -29
71 -81 13 -47 108 -136 191 -177 61 -31 65 -31 211 -31 138 0 161 3 316 39
253 60 298 65 510 58 103 -4 237 -11 297 -16 602 -52 884 -67 1590 -81 286 -6
540 -14 565 -18 l45 -8 -2 -56 c-4 -71 8 -82 80 -76 52 5 136 35 335 119 138
59 132 69 132 -205 0 -259 19 -458 50 -521 47 -97 116 -110 225 -41 113 73
351 336 575 636 55 74 118 158 139 186 l39 52 74 7 c79 7 312 31 448 45 236
26 291 32 365 40 258 29 422 59 497 92 32 14 66 41 103 84 66 74 90 82 185 60
82 -20 137 -20 239 -1 148 28 762 211 808 241 27 17 53 74 53 116 0 44 -35 68
-245 173 -264 130 -1018 474 -1205 550 -243 98 -941 358 -1083 404 -146 48
-375 107 -697 181 -718 165 -822 200 -922 309 -63 69 -209 290 -413 626 -203
333 -233 380 -318 495 -179 241 -284 306 -371 229 -47 -41 -71 -96 -151 -344
-82 -255 -122 -358 -224 -569 -146 -305 -224 -415 -326 -462 -62 -29 -273 -90
-651 -188 -159 -41 -352 -91 -429 -111 -77 -20 -363 -95 -635 -167 -1016 -267
-1182 -305 -1282 -296 -33 4 -77 19 -127 47 -218 118 -238 125 -341 129 -73 3
-104 0 -126 -11 -16 -8 -81 -63 -144 -122 -186 -174 -285 -239 -413 -272 -164
-41 -379 39 -638 239 -299 230 -804 822 -1172 1373 -219 327 -377 533 -526
684 -105 107 -170 152 -225 158 -35 4 -47 0 -88 -32z"/>
</g>
</svg>
